<svg width="40" height="40" viewBox="0 0 40 40" fill="none" xmlns="http://www.w3.org/2000/svg">
<rect width="40" height="40" fill="#E5E5E5"/>
<g id="3.1 Search results loading">
<rect width="1920" height="1146" transform="translate(-293 -27)" fill="#F5F5FA"/>
<g id="Header/movies">
<rect width="1920" height="94" transform="translate(-293 -27)" fill="#18181B"/>
<g id="Logo">
<g id="Iconly/Video">
<path id="Stroke 1" d="M26.8779 24.9939L32.9863 27.4906C34.1463 27.9639 35.4163 27.1122 35.4163 25.8589V14.7939C35.4163 13.5406 34.1463 12.6872 32.9863 13.1606L26.8779 15.6572" stroke="white" stroke-width="2.5" stroke-linecap="round" stroke-linejoin="round"/>
<path id="Stroke 3" fill-rule="evenodd" clip-rule="evenodd" d="M10.5063 31.9014H20.9547C24.5947 31.9014 26.878 29.5297 26.878 26.1714V14.4797C26.878 11.1214 24.6047 8.74969 20.9547 8.74969H10.5063C6.85467 8.74969 4.58301 11.1214 4.58301 14.4797V26.1714C4.58301 29.5297 6.85467 31.9014 10.5063 31.9014Z" stroke="white" stroke-width="2.5" stroke-linecap="round" stroke-linejoin="round"/>
</g>
</g>
</g>
</g>
</svg>
